# xmcd CD database file
#
# Track frame offsets:
#	150
#	29467
#	70600
#	105590
#	137262
#	163185
#	202352
#	215682
#	236767
#	263802
#	298575
#
# Disc length: 4402 seconds
#
# Revision: 0
# Processed by: cddbd v1.5.1PL2 Copyright (c) Steve Scherf et al.
# Submitted via: CDex 1.51
#
DISCID=a811300b
DTITLE=various artist - red hot on impulse
DYEAR=1994
DGENRE=Jazz
TTITLE0=jouney into satchidananda
TTITLE1=the creator has a master plan
TTITLE2=a love supreme part 1
TTITLE3=a love supreme
TTITLE4=astral traveling
TTITLE5=stolen moments
TTITLE6=garvey`s ghost
TTITLE7=hora decubitus
TTITLE8=upper egypt and lower egypt
TTITLE9=le matin des noire
TTITLE10=blue nile
EXTD=YEAR: 1994
EXTT0=
EXTT1=
EXTT2=
EXTT3=
EXTT4=
EXTT5=
EXTT6=
EXTT7=
EXTT8=
EXTT9=
EXTT10=
PLAYORDER=
